<svg xmlns="http://www.w3.org/2000/svg" viewBox="0 0 128 128">
  <rect width="128" height="128" rx="24" fill="#ffffff" />
  <path d="M20 92c7-18 22-28 40-28s33 10 40 28H20Z" fill="#243d6b" />
  <path d="M43 63 32 90h18l10-13 10 13h23L81 63H43Z" fill="#ef3945" />
  <path
    d="M40 57c0-22 15-37 34-37 18 0 31 13 31 32 0 10-3 17-8 22l-7-8c4-3 6-7 6-13 0-13-9-22-22-22-14 0-24 10-24 26H40Z"
    fill="#ef3945"
  />
  <path
    d="m62 30 11 8 22-8c-4-6-12-10-21-10-7 0-13 2-18 6l6 4Z"
    fill="#243d6b"
  />
  <path
    d="M57 45c8-7 21-11 38-13l2 8c-11 4-23 8-34 11l-7 19-9-5 10-20Z"
    fill="#243d6b"
  />
  <path
    d="m36 68 25 11-5 9-26-10c-3-1-4-4-3-7 1-3 5-5 9-3Z"
    fill="#243d6b"
  />
  <path
    d="m79 85 12 4m-11 4 7 12m-10-6-4 10m0-20-10 8"
    stroke="#243d6b"
    stroke-width="4"
    stroke-linecap="round"
  />
</svg>
